<svg width="128" height="141" viewBox="0 0 128 141" fill="none" xmlns="http://www.w3.org/2000/svg">
<rect width="128" height="141" fill="#F5F5F5"/>
<rect width="1440" height="1024" transform="translate(-1039 -373)" fill="white"/>
<path d="M20.197 41.2371L120.128 68.0301L103.414 130.369C102.727 132.931 101.05 135.115 98.753 136.441C96.4557 137.767 93.7257 138.126 91.1637 137.439L10.553 115.826C7.99098 115.139 5.8068 113.462 4.48092 111.165C3.15504 108.868 2.79607 106.138 3.48298 103.576L20.197 41.2371Z" fill="#4F96F6"/>
<path d="M120.128 68.0301L102.488 133.822C102.046 135.468 100.969 136.872 99.4933 137.724C98.0172 138.576 96.2633 138.806 94.6172 138.365L7.09953 114.9C5.45345 114.459 4.05011 113.382 3.19823 111.905C2.34635 110.429 2.11571 108.675 2.55705 107.029L120.128 68.0301Z" fill="#FBC100"/>
<path opacity="0.9" d="M20.197 41.2371L2.55705 107.029C2.11571 108.675 2.34635 110.429 3.19823 111.905C4.05011 113.382 5.45345 114.459 7.09953 114.9L94.6191 138.365C96.2652 138.807 98.0192 138.576 99.4952 137.724C100.971 136.872 102.048 135.469 102.49 133.823L20.197 41.2371Z" fill="#EC4F3B"/>
<g filter="url(#filter0_d_14_198)">
<path d="M19.906 41H122.906V107C122.906 109.652 121.852 112.196 119.977 114.071C118.102 115.946 115.558 117 112.906 117H29.906C27.2538 117 24.7103 115.946 22.8349 114.071C20.9596 112.196 19.906 109.652 19.906 107V41Z" fill="#4F96F6"/>
</g>
<g filter="url(#filter1_d_14_198)">
<path d="M123.107 41V109.108C123.106 109.953 122.939 110.789 122.615 111.57C122.291 112.35 121.816 113.058 121.218 113.655C120.62 114.252 119.91 114.725 119.129 115.047C118.348 115.369 117.511 115.534 116.666 115.533H25.9029C25.0584 115.534 24.222 115.368 23.4414 115.046C22.6609 114.723 21.9515 114.25 21.3538 113.654C20.756 113.057 20.2817 112.349 19.9578 111.569C19.6339 110.789 19.4667 109.953 19.4659 109.108L123.107 41Z" fill="#FBC100"/>
</g>
<g filter="url(#filter2_d_14_198)">
<path d="M19.4659 41V110.078C19.4607 110.929 19.623 111.772 19.9436 112.56C20.2643 113.348 20.737 114.065 21.3347 114.67C21.9324 115.275 22.6435 115.756 23.4273 116.087C24.2112 116.417 25.0524 116.59 25.9029 116.595H116.666C117.517 116.59 118.358 116.417 119.142 116.087C119.925 115.756 120.636 115.275 121.234 114.67C121.832 114.065 122.305 113.348 122.625 112.56C122.946 111.772 123.108 110.929 123.103 110.078L19.4659 41Z" fill="#F0AE00"/>
</g>
<g filter="url(#filter3_d_14_198)">
<path d="M71.406 4L122.906 41H19.906L71.406 4Z" fill="#3174C9"/>
</g>
<defs>
<filter id="filter0_d_14_198" x="11.906" y="37" width="115" height="88" filterUnits="userSpaceOnUse" color-interpolation-filters="sRGB">
<feFlood flood-opacity="0" result="BackgroundImageFix"/>
<feColorMatrix in="SourceAlpha" type="matrix" values="0 0 0 0 0 0 0 0 0 0 0 0 0 0 0 0 0 0 127 0" result="hardAlpha"/>
<feOffset dx="-2" dy="2"/>
<feGaussianBlur stdDeviation="3"/>
<feColorMatrix type="matrix" values="0 0 0 0 0.113725 0 0 0 0 0.113725 0 0 0 0 0.113725 0 0 0 0.102 0"/>
<feBlend mode="normal" in2="BackgroundImageFix" result="effect1_dropShadow_14_198"/>
<feBlend mode="normal" in="SourceGraphic" in2="effect1_dropShadow_14_198" result="shape"/>
</filter>
<filter id="filter1_d_14_198" x="11.4659" y="37" width="115.641" height="86.533" filterUnits="userSpaceOnUse" color-interpolation-filters="sRGB">
<feFlood flood-opacity="0" result="BackgroundImageFix"/>
<feColorMatrix in="SourceAlpha" type="matrix" values="0 0 0 0 0 0 0 0 0 0 0 0 0 0 0 0 0 0 127 0" result="hardAlpha"/>
<feOffset dx="-2" dy="2"/>
<feGaussianBlur stdDeviation="3"/>
<feColorMatrix type="matrix" values="0 0 0 0 0.113725 0 0 0 0 0.113725 0 0 0 0 0.113725 0 0 0 0.102 0"/>
<feBlend mode="normal" in2="BackgroundImageFix" result="effect1_dropShadow_14_198"/>
<feBlend mode="normal" in="SourceGraphic" in2="effect1_dropShadow_14_198" result="shape"/>
</filter>
<filter id="filter2_d_14_198" x="11.4658" y="37" width="115.637" height="87.595" filterUnits="userSpaceOnUse" color-interpolation-filters="sRGB">
<feFlood flood-opacity="0" result="BackgroundImageFix"/>
<feColorMatrix in="SourceAlpha" type="matrix" values="0 0 0 0 0 0 0 0 0 0 0 0 0 0 0 0 0 0 127 0" result="hardAlpha"/>
<feOffset dx="-2" dy="2"/>
<feGaussianBlur stdDeviation="3"/>
<feColorMatrix type="matrix" values="0 0 0 0 0.113725 0 0 0 0 0.113725 0 0 0 0 0.113725 0 0 0 0.102 0"/>
<feBlend mode="normal" in2="BackgroundImageFix" result="effect1_dropShadow_14_198"/>
<feBlend mode="normal" in="SourceGraphic" in2="effect1_dropShadow_14_198" result="shape"/>
</filter>
<filter id="filter3_d_14_198" x="11.906" y="0" width="115" height="49" filterUnits="userSpaceOnUse" color-interpolation-filters="sRGB">
<feFlood flood-opacity="0" result="BackgroundImageFix"/>
<feColorMatrix in="SourceAlpha" type="matrix" values="0 0 0 0 0 0 0 0 0 0 0 0 0 0 0 0 0 0 127 0" result="hardAlpha"/>
<feOffset dx="-2" dy="2"/>
<feGaussianBlur stdDeviation="3"/>
<feColorMatrix type="matrix" values="0 0 0 0 0.113725 0 0 0 0 0.113725 0 0 0 0 0.113725 0 0 0 0.102 0"/>
<feBlend mode="normal" in2="BackgroundImageFix" result="effect1_dropShadow_14_198"/>
<feBlend mode="normal" in="SourceGraphic" in2="effect1_dropShadow_14_198" result="shape"/>
</filter>
</defs>
</svg>
