<svg width="26" height="26" viewBox="0 0 26 26" fill="none" xmlns="http://www.w3.org/2000/svg">
<path d="M17.8044 11.3253L14.662 15.3705L12.4223 12.6737L9.27981 16.7074H21.8496L17.8044 11.3253ZM2.9949 5.28032H0.709473V23.5637C0.709473 24.8207 1.73791 25.8491 2.9949 25.8491H21.2783V23.5637H2.9949V5.28032ZM23.5637 0.709473H7.56575C6.30876 0.709473 5.28032 1.73791 5.28032 2.9949V18.9929C5.28032 20.2498 6.30876 21.2783 7.56575 21.2783H23.5637C24.8207 21.2783 25.8491 20.2498 25.8491 18.9929V2.9949C25.8491 1.73791 24.8207 0.709473 23.5637 0.709473ZM23.5637 18.9929H7.56575V2.9949H23.5637V18.9929Z" fill="#1363FF"/>
</svg>
