<svg width="51" height="58" viewBox="0 0 51 58" fill="none" xmlns="http://www.w3.org/2000/svg">
<rect width="51" height="58" fill="#F5F5F5"/>
<rect width="1440" height="1024" transform="translate(-35 -43)" fill="#F9F9F9"/>
<path d="M0.346863 35.7372V37.8239C0.347029 38.267 0.454237 38.7035 0.659372 39.0963C0.864508 39.4893 1.16147 39.8266 1.52501 40.0801L9.7957 31.8092L7.50276 29.5162C7.4414 29.455 7.36859 29.4063 7.28843 29.3731C7.20831 29.3398 7.12239 29.3228 7.03564 29.3228C6.94889 29.3228 6.863 29.3398 6.78287 29.3731C6.70272 29.4063 6.6299 29.455 6.56855 29.5162L0.346863 35.7372Z" fill="white"/>
<path d="M7.03499 26.809C7.31225 26.8083 7.5869 26.8624 7.84304 26.9687C8.09918 27.0748 8.33171 27.2308 8.52716 27.4273L11.3516 30.2517L17.1505 24.4527C17.752 23.8522 18.5672 23.5149 19.4172 23.5149C20.2671 23.5149 21.0824 23.8522 21.6838 24.4527L29.7471 32.5159L32.2392 30.0238C32.6353 29.6286 33.1717 29.4067 33.7313 29.4067C34.2907 29.4067 34.8274 29.6286 35.2233 30.0238L38.4877 33.2908V18.981C38.4877 18.4977 38.3605 18.0231 38.1186 17.6046C37.877 17.1862 37.5295 16.8387 37.1111 16.5971L20.7935 7.17598C20.3751 6.93434 19.9002 6.80713 19.4169 6.80713C18.9337 6.80713 18.4589 6.93434 18.0403 7.17598L1.72254 16.5971C1.30408 16.8387 0.95656 17.1862 0.714921 17.6046C0.473282 18.0231 0.346042 18.4977 0.345947 18.981V32.623L5.54188 27.427C5.73748 27.2303 5.97019 27.0743 6.22648 26.9685C6.48278 26.8624 6.7576 26.8081 7.03499 26.809Z" fill="white"/>
<path d="M31.3037 34.0738L37.3085 40.0798C37.6721 39.8263 37.969 39.4888 38.1741 39.096C38.3791 38.7032 38.4862 38.2667 38.4864 37.8236V36.4043L34.1964 32.1143C34.0726 31.9904 33.9045 31.9209 33.7294 31.9209C33.554 31.9209 33.3859 31.9904 33.262 32.1143L31.3037 34.0738Z" fill="white"/>
<path d="M29.7466 35.6307L28.1898 34.0742L20.1266 26.0112C19.9384 25.8232 19.6835 25.7178 19.4175 25.7178C19.1516 25.7178 18.8966 25.8232 18.7085 26.0112L12.9095 31.8102L11.3525 33.3671L3.49097 41.2277L18.0401 49.6282C18.4586 49.8698 18.9334 49.9971 19.4167 49.9971C19.8999 49.9971 20.3748 49.8698 20.7933 49.6282L35.3424 41.2277L29.7466 35.6307Z" fill="white"/>
<path d="M19.4174 4.27659C19.9571 4.27645 20.4876 4.41848 20.9549 4.68838L39.185 15.2136C39.6525 15.4835 40.0406 15.8717 40.3104 16.3392C40.5803 16.8067 40.7225 17.337 40.7225 17.8768V38.9272C40.7225 39.467 40.5803 39.9972 40.3104 40.4648C40.0406 40.9321 39.6525 41.3204 39.185 41.5902L20.9549 52.1155C20.4873 52.3853 19.9571 52.5275 19.4173 52.5275C18.8774 52.5275 18.3471 52.3853 17.8796 52.1155L-0.350449 41.5902C-0.817919 41.3204 -1.20612 40.9321 -1.476 40.4648C-1.74588 39.9972 -1.88797 39.467 -1.88795 38.9272V17.8768C-1.88796 17.337 -1.74588 16.8067 -1.476 16.3392C-1.20609 15.8717 -0.817919 15.4835 -0.350449 15.2136L17.8796 4.68838C18.3472 4.4185 18.8775 4.27647 19.4174 4.27659ZM19.4174 2C18.478 2.00037 17.5553 2.24763 16.7416 2.71701L-1.48875 13.2422C-2.30128 13.7131 -2.97604 14.3889 -3.4456 15.2022C-3.91515 16.0155 -4.16306 16.9377 -4.16455 17.8768V38.9272C-4.16301 39.8664 -3.91505 40.7887 -3.44546 41.6019C-2.97587 42.4152 -2.30107 43.091 -1.48851 43.5618L16.7416 54.0871C17.5552 54.5568 18.478 54.8038 19.4174 54.8038C20.3568 54.8038 21.2796 54.5568 22.0932 54.0871L40.3233 43.5618C41.1359 43.0912 41.8109 42.4152 42.2806 41.6021C42.7503 40.7887 42.9984 39.8664 43 38.9272V17.8768C42.9986 16.9377 42.7506 16.0155 42.2811 15.2022C41.8114 14.3889 41.1366 13.7131 40.3242 13.2422L22.0941 2.71701C21.2805 2.24766 20.3577 2.0004 19.4183 2H19.4174Z" fill="white"/>
<path d="M4.87561 36.4611V38.7163C4.87579 39.1952 4.99165 39.6669 5.21335 40.0914C5.43505 40.5162 5.75598 40.8806 6.14887 41.1546L15.0873 32.2159L12.6092 29.7379C12.5429 29.6717 12.4642 29.6191 12.3776 29.5832C12.291 29.5473 12.1981 29.5288 12.1044 29.5288C12.0106 29.5288 11.9178 29.5473 11.8312 29.5832C11.7446 29.6191 11.6659 29.6717 11.5996 29.7379L4.87561 36.4611Z" fill="#1363FF"/>
<path d="M12.1037 26.812C12.4033 26.8112 12.7002 26.8697 12.977 26.9846C13.2538 27.0992 13.5051 27.2678 13.7163 27.4801L16.7687 30.5325L23.0359 24.2654C23.6859 23.6164 24.567 23.2519 25.4855 23.2519C26.404 23.2519 27.2851 23.6164 27.9351 24.2654L36.6493 32.9796L39.3426 30.2863C39.7707 29.8592 40.3504 29.6194 40.9552 29.6194C41.5598 29.6194 42.1398 29.8592 42.5676 30.2863L46.0956 33.8171V18.3519C46.0956 17.8297 45.9581 17.3167 45.6967 16.8645C45.4356 16.4123 45.0601 16.0367 44.6079 15.7756L26.973 5.59395C26.5207 5.3328 26.0075 5.19531 25.4852 5.19531C24.9629 5.19531 24.4499 5.3328 23.9975 5.59395L6.36236 15.7756C5.91011 16.0367 5.53454 16.4123 5.27339 16.8645C5.01225 17.3167 4.87474 17.8297 4.87463 18.3519V33.0953L10.49 27.4799C10.7014 27.2672 10.9529 27.0987 11.2299 26.9843C11.5069 26.8697 11.8039 26.8109 12.1037 26.812Z" fill="#1363FF"/>
<path d="M38.3317 34.6632L44.8212 41.154C45.2142 40.8801 45.5351 40.5153 45.7567 40.0908C45.9783 39.6663 46.094 39.1946 46.0942 38.7157V37.1818L41.4579 32.5455C41.324 32.4116 41.1424 32.3364 40.9531 32.3364C40.7636 32.3364 40.582 32.4116 40.4481 32.5455L38.3317 34.6632Z" fill="#1363FF"/>
<path d="M36.6488 36.3455L34.9664 34.6634L26.2522 25.9494C26.0488 25.7463 25.7733 25.6323 25.4859 25.6323C25.1985 25.6323 24.9229 25.7463 24.7196 25.9494L18.4524 32.2166L16.7697 33.8992L8.27356 42.3944L23.9972 51.4731C24.4496 51.7342 24.9627 51.8717 25.485 51.8717C26.0072 51.8717 26.5205 51.7342 26.9727 51.4731L42.6964 42.3944L36.6488 36.3455Z" fill="#1363FF"/>
<path d="M25.4857 2.46039C26.069 2.46023 26.6423 2.61372 27.1474 2.90542L46.8492 14.2803C47.3545 14.5721 47.7739 14.9916 48.0655 15.4968C48.3571 16.0021 48.5108 16.5752 48.5108 17.1586V39.9084C48.5108 40.4917 48.3571 41.0647 48.0655 41.57C47.7739 42.0751 47.3545 42.4947 46.8492 42.7864L27.1474 54.1613C26.642 54.4529 26.069 54.6066 25.4856 54.6066C24.9022 54.6066 24.3291 54.4529 23.8238 54.1613L4.12202 42.7864C3.61681 42.4947 3.19727 42.0751 2.9056 41.57C2.61393 41.0647 2.46037 40.4917 2.46039 39.9084V17.1586C2.46038 16.5752 2.61393 16.0021 2.9056 15.4968C3.1973 14.9916 3.61681 14.5721 4.12202 14.2803L23.8238 2.90542C24.3291 2.61375 24.9023 2.46025 25.4857 2.46039ZM25.4857 0C24.4705 0.000396465 23.4733 0.267623 22.5939 0.774898L2.89183 12.1498C2.01369 12.6587 1.28446 13.389 0.776994 14.268C0.269534 15.1469 0.00161239 16.1437 0 17.1586V39.9084C0.00166427 40.9234 0.26964 41.9202 0.777143 42.799C1.28465 43.678 2.01392 44.4083 2.89208 44.9172L22.5939 56.2921C23.4732 56.7997 24.4705 57.0667 25.4857 57.0667C26.501 57.0667 27.4982 56.7997 28.3775 56.2921L48.0794 44.9172C48.9576 44.4085 49.6871 43.678 50.1947 42.7992C50.7024 41.9202 50.9704 40.9234 50.9722 39.9084V17.1586C50.9707 16.1437 50.7026 15.1469 50.1953 14.268C49.6876 13.3891 48.9584 12.6587 48.0804 12.1498L28.3786 0.774898C27.4993 0.267657 26.502 0.000432545 25.4867 0H25.4857Z" fill="#1363FF"/>
</svg>
