<svg width="88" height="102" viewBox="0 0 88 102" fill="none" xmlns="http://www.w3.org/2000/svg">
<path opacity="0.0526316" d="M17.8639 142.059C22.5665 148.315 37.5963 158.785 60.0952 150.611C88.219 140.394 99.096 113.31 124.197 99.2673C142.723 88.9025 192.504 73.3444 221.129 90.5363" stroke="#C5D8FF" stroke-width="1.25989"/>
<path opacity="0.105263" d="M13.2256 128.943C17.2484 135.657 31.1016 147.64 54.3317 141.863C83.3693 134.641 97.0177 108.843 123.449 97.5007C142.957 89.1292 194.092 78.8598 220.763 98.9497" stroke="#C5D8FF" stroke-width="1.25989"/>
<path opacity="0.157895" d="M9.72141 115.651C13.0204 122.748 25.5451 136.113 49.2519 132.796C78.8853 128.649 95.1555 104.419 122.628 95.9017C142.904 89.6153 194.832 84.7471 219.257 107.515" stroke="#C5D8FF" stroke-width="1.25989"/>
<path opacity="0.210526" d="M7.36374 102.3C9.9028 109.704 20.9618 124.305 44.8855 123.484C74.79 122.457 93.5039 100.061 121.716 94.4617C142.538 90.3291 194.69 90.9156 216.601 116.112" stroke="#C5D8FF" stroke-width="1.25989"/>
<path opacity="0.263158" d="M6.15228 89.0129C7.90358 96.6411 17.3758 112.318 41.2542 114.002C71.1022 116.107 92.0546 95.7896 120.697 93.1701C141.838 91.2367 193.643 97.2713 212.8 124.62" stroke="#C5D8FF" stroke-width="1.25989"/>
<path opacity="0.315789" d="M6.07426 75.9082C7.01861 83.6776 14.8002 100.259 38.3718 104.43C67.8363 109.643 90.7977 91.627 119.557 92.0158C140.784 92.3028 191.674 103.719 207.868 132.921" stroke="#C5D8FF" stroke-width="1.25989"/>
<path opacity="0.368421" d="M7.10432 63.1021C7.23138 70.9277 13.2371 88.2317 36.2436 94.8435C65.0017 103.108 89.7205 87.5908 118.282 90.9837C139.362 93.4878 188.781 110.162 201.833 140.895" stroke="#C5D8FF" stroke-width="1.25989"/>
<path opacity="0.421053" d="M9.20513 50.7105C8.51349 58.5064 12.6776 76.3435 34.8669 85.3239C62.6036 96.5494 88.809 83.7008 116.859 90.0605C137.562 94.7545 184.967 116.502 194.736 148.432" stroke="#C5D8FF" stroke-width="1.25989"/>
<path opacity="0.473684" d="M12.3276 38.8422C10.8248 46.5232 13.1016 64.6978 34.2307 75.9484C60.642 90.0117 88.047 79.9727 115.279 89.2296C135.378 96.0619 180.25 122.646 186.627 155.422" stroke="#C5D8FF" stroke-width="1.25989"/>
<path opacity="0.526316" d="M16.4113 27.6025C14.1139 35.0843 14.4784 53.3973 34.3157 66.7949C59.1124 83.5419 87.4166 76.4225 113.531 88.4752C132.806 97.371 174.654 128.5 177.57 161.763" stroke="#C5D8FF" stroke-width="1.25989"/>
<path opacity="0.578947" d="M21.3855 17.086C18.3186 24.2867 16.7669 42.5375 35.0951 57.9353C58.0054 77.1825 86.8987 73.0606 111.611 87.7771C129.85 98.6389 168.214 133.971 167.638 167.357" stroke="#C5D8FF" stroke-width="1.25989"/>
<path opacity="0.631579" d="M27.1695 7.38292C23.3667 14.2236 19.9158 32.2122 36.5341 49.4414C57.307 70.978 86.4729 69.8989 109.511 87.1178C126.515 99.8267 160.976 138.976 156.913 172.118" stroke="#C5D8FF" stroke-width="1.25989"/>
<path opacity="0.684211" d="M33.6738 -1.42539C29.1768 4.9803 23.8645 22.5097 38.5908 41.3816C56.9987 64.9715 86.1176 66.947 107.23 86.4798C122.812 100.896 152.992 143.433 145.487 175.97" stroke="#C5D8FF" stroke-width="1.25989"/>
<path opacity="0.736842" d="M40.8011 -9.27041C35.6592 -3.36987 28.5437 13.5082 41.2167 33.816C57.0579 59.2009 85.8108 64.2093 104.766 85.8419C118.756 101.808 144.324 147.267 133.459 178.84" stroke="#C5D8FF" stroke-width="1.25989"/>
<path opacity="0.789474" d="M48.4472 -16.0915C42.7167 -10.7607 33.8759 5.28107 44.3567 26.8024C57.4578 53.704 85.5296 61.6905 102.119 85.1859C114.364 102.527 135.04 150.409 120.935 180.674" stroke="#C5D8FF" stroke-width="1.25989"/>
<path opacity="0.842105" d="M56.5022 -21.839C50.2459 -17.1365 39.7767 -2.10665 47.9505 20.3923C58.1678 48.516 85.2511 59.393 99.2941 84.4939C109.659 103.02 125.217 152.801 108.025 181.426" stroke="#C5D8FF" stroke-width="1.25989"/>
<path opacity="0.894737" d="M64.8518 -26.4766C58.1382 -22.4538 46.1553 -8.60065 51.9326 14.6295C59.1542 43.6671 84.9521 57.3155 96.2944 83.7467C104.666 103.255 114.935 154.389 94.8454 181.06" stroke="#C5D8FF" stroke-width="1.25989"/>
<path opacity="0.947368" d="M73.3783 -29.9814C66.2809 -26.6824 52.9156 -14.1577 56.233 9.54904C60.3798 39.1825 84.6097 55.4527 93.1271 82.9247C99.4136 103.201 104.282 155.129 81.514 179.554" stroke="#C5D8FF" stroke-width="1.25989"/>
<path d="M81.9622 -32.3389C74.5589 -29.7998 59.9576 -18.7408 60.7788 5.18287C61.8053 35.0874 84.2018 53.8013 89.801 82.0131C93.9335 102.836 93.3471 154.988 68.151 176.899" stroke="#C5D8FF" stroke-width="1.25989"/>
</svg>
