<svg width="257" height="327" viewBox="0 0 257 327" fill="none" xmlns="http://www.w3.org/2000/svg">
<path opacity="0.5" d="M217.982 163.071C237.569 192.094 244.559 217.973 233.654 230.646C216.133 251.008 159.051 229.569 106.158 182.76C53.2648 135.952 24.59 81.5 42.111 61.1383C54.8427 46.3425 88.4633 53.6184 126.187 76.6615" stroke="white" stroke-width="0.985701"/>
<path d="M178.887 187.55C198.474 216.573 205.464 242.453 194.559 255.126C177.038 275.487 119.956 254.048 67.0629 207.24C14.1697 160.432 -14.5051 105.979 3.01592 85.6178C15.7476 70.822 49.3682 78.0979 87.0917 101.141" stroke="white" stroke-width="0.985701"/>
<path opacity="0.7" d="M251.88 141.855C271.467 170.878 278.457 196.757 267.552 209.43C250.031 229.792 192.949 208.353 140.056 161.545C87.163 114.736 58.4882 60.2842 76.0092 39.9225C88.7408 25.1267 122.361 32.4026 160.085 55.4456" stroke="white" stroke-width="0.985701"/>
</svg>
