<svg width="108" height="108" viewBox="0 0 108 108" fill="none" xmlns="http://www.w3.org/2000/svg">
<rect width="108" height="108" fill="#F5F5F5"/>
<rect width="1440" height="1024" transform="translate(-1048 -324)" fill="white"/>
<g filter="url(#filter0_d_14_198)">
<rect x="-197" y="-20" width="502" height="402.8" rx="10" fill="white" shape-rendering="crispEdges"/>
<g filter="url(#filter1_d_14_198)">
<path d="M54 108C83.8234 108 108 83.8234 108 54C108 24.1766 83.8234 0 54 0C24.1766 0 0 24.1766 0 54C0 83.8234 24.1766 108 54 108Z" fill="#2FC863"/>
</g>
<path d="M54 99C78.8528 99 99 78.8528 99 54C99 29.1472 78.8528 9 54 9C29.1472 9 9 29.1472 9 54C9 78.8528 29.1472 99 54 99Z" fill="#1BAA54"/>
<g filter="url(#filter2_d_14_198)">
<path d="M36.6218 57.2737L46.0878 68.0628L72.7617 43" stroke="white" stroke-width="10.0125" stroke-linecap="round" stroke-linejoin="round"/>
</g>
<rect x="-196.5" y="-19.5" width="501" height="401.8" rx="9.5" stroke="#C5D8FF" shape-rendering="crispEdges"/>
</g>
<defs>
<filter id="filter0_d_14_198" x="-227" y="-26" width="562" height="462.8" filterUnits="userSpaceOnUse" color-interpolation-filters="sRGB">
<feFlood flood-opacity="0" result="BackgroundImageFix"/>
<feColorMatrix in="SourceAlpha" type="matrix" values="0 0 0 0 0 0 0 0 0 0 0 0 0 0 0 0 0 0 127 0" result="hardAlpha"/>
<feOffset dy="24"/>
<feGaussianBlur stdDeviation="15"/>
<feComposite in2="hardAlpha" operator="out"/>
<feColorMatrix type="matrix" values="0 0 0 0 0.878431 0 0 0 0 0.878431 0 0 0 0 0.878431 0 0 0 0.25 0"/>
<feBlend mode="normal" in2="BackgroundImageFix" result="effect1_dropShadow_14_198"/>
<feBlend mode="normal" in="SourceGraphic" in2="effect1_dropShadow_14_198" result="shape"/>
</filter>
<filter id="filter1_d_14_198" x="-3" y="-3" width="112" height="112" filterUnits="userSpaceOnUse" color-interpolation-filters="sRGB">
<feFlood flood-opacity="0" result="BackgroundImageFix"/>
<feColorMatrix in="SourceAlpha" type="matrix" values="0 0 0 0 0 0 0 0 0 0 0 0 0 0 0 0 0 0 127 0" result="hardAlpha"/>
<feOffset dx="-1" dy="-1"/>
<feGaussianBlur stdDeviation="1"/>
<feColorMatrix type="matrix" values="0 0 0 0 0 0 0 0 0 0 0 0 0 0 0 0 0 0 0.161 0"/>
<feBlend mode="normal" in2="BackgroundImageFix" result="effect1_dropShadow_14_198"/>
<feBlend mode="normal" in="SourceGraphic" in2="effect1_dropShadow_14_198" result="shape"/>
</filter>
<filter id="filter2_d_14_198" x="28.6152" y="36.9939" width="50.1528" height="39.0752" filterUnits="userSpaceOnUse" color-interpolation-filters="sRGB">
<feFlood flood-opacity="0" result="BackgroundImageFix"/>
<feColorMatrix in="SourceAlpha" type="matrix" values="0 0 0 0 0 0 0 0 0 0 0 0 0 0 0 0 0 0 127 0" result="hardAlpha"/>
<feOffset dx="-1" dy="1"/>
<feGaussianBlur stdDeviation="1"/>
<feColorMatrix type="matrix" values="0 0 0 0 0 0 0 0 0 0 0 0 0 0 0 0 0 0 0.161 0"/>
<feBlend mode="normal" in2="BackgroundImageFix" result="effect1_dropShadow_14_198"/>
<feBlend mode="normal" in="SourceGraphic" in2="effect1_dropShadow_14_198" result="shape"/>
</filter>
</defs>
</svg>
